# xmcd
#
# Track frame offsets:
#	150
#	15412
#	34475
#	51190
#	67740
#	85987
#	105097
#	122097
#	136850
#	154925
#	171350
#	183927
#
# Disc length: 2645 seconds
# Revision: 4
# Processed by: cddbd v1.5.2PL0 Copyright (c) Steve Scherf et al.
# Submitted via: dBpowerAMP V12.0
#
DISCID=920a530c
DTITLE=Lee Kernaghan - Three Chain Road
DYEAR=1993
DGENRE=Country
TTITLE0=The Outback Club
TTITLE1=Three Chain Road
TTITLE2=She's My Ute
TTITLE3=Dust on My Boots
TTITLE4=The Burning Heart
TTITLE5=Cause I'm Country
TTITLE6=Collingullie Station
TTITLE7=Leave Him in the Longyard
TTITLE8=Southern Son
TTITLE9=Back to the Shack
TTITLE10=Cobar Line
TTITLE11=Western Stars
EXTD=
EXTT0=
EXTT1=
EXTT2=
EXTT3=
EXTT4=
EXTT5=
EXTT6=
EXTT7=
EXTT8=
EXTT9=
EXTT10=
EXTT11=
PLAYORDER=
